<mxfile host="Electron" modified="2023-05-06T12:27:41.592Z" agent="Mozilla/5.0 (X11; Linux x86_64) AppleWebKit/537.36 (KHTML, like Gecko) draw.io/21.2.1 Chrome/112.0.5615.87 Electron/24.1.2 Safari/537.36" etag="VY6mx3cBEjWjPBljz587" version="21.2.1" type="device" pages="2">
  <diagram id="L3Uab2vicyZqTiVYHIeF" name="Page-2">
    <mxGraphModel dx="1969" dy="992" grid="1" gridSize="10" guides="1" tooltips="1" connect="1" arrows="1" fold="1" page="1" pageScale="1" pageWidth="850" pageHeight="1100" math="0" shadow="0">
      <root>
        <mxCell id="0" />
        <mxCell id="1" parent="0" />
        <mxCell id="Gqauc_cHtwARVeHKRNRg-1" value="Начало" style="strokeWidth=2;html=1;shape=mxgraph.flowchart.start_1;whiteSpace=wrap;" vertex="1" parent="1">
          <mxGeometry x="289.94" y="64.5" width="140" height="60" as="geometry" />
        </mxCell>
        <mxCell id="Gqauc_cHtwARVeHKRNRg-4" value="" style="endArrow=none;dashed=1;html=1;dashPattern=1 3;strokeWidth=2;rounded=0;exitX=1;exitY=0.5;exitDx=0;exitDy=0;exitPerimeter=0;entryX=0;entryY=0.5;entryDx=0;entryDy=0;entryPerimeter=0;" edge="1" parent="1" source="Gqauc_cHtwARVeHKRNRg-1" target="Gqauc_cHtwARVeHKRNRg-5">
          <mxGeometry width="50" height="50" relative="1" as="geometry">
            <mxPoint x="439.94" y="94.5" as="sourcePoint" />
            <mxPoint x="459.94" y="74.5" as="targetPoint" />
          </mxGeometry>
        </mxCell>
        <mxCell id="Gqauc_cHtwARVeHKRNRg-5" value="" style="strokeWidth=2;html=1;shape=mxgraph.flowchart.annotation_2;align=left;labelPosition=right;pointerEvents=1;" vertex="1" parent="1">
          <mxGeometry x="459.94" y="44.5" width="50" height="100" as="geometry" />
        </mxCell>
        <mxCell id="Gqauc_cHtwARVeHKRNRg-6" value="Вход: параметры обучения, модель, набор обучающих данных&lt;br&gt;Выход:&amp;nbsp;обученная модель" style="text;html=1;strokeColor=none;fillColor=none;align=center;verticalAlign=middle;whiteSpace=wrap;rounded=0;" vertex="1" parent="1">
          <mxGeometry x="489.94" y="79.5" width="200" height="30" as="geometry" />
        </mxCell>
        <mxCell id="Gqauc_cHtwARVeHKRNRg-46" value="" style="edgeStyle=orthogonalEdgeStyle;rounded=0;orthogonalLoop=1;jettySize=auto;html=1;" edge="1" parent="1" source="Gqauc_cHtwARVeHKRNRg-8" target="Gqauc_cHtwARVeHKRNRg-45">
          <mxGeometry relative="1" as="geometry" />
        </mxCell>
        <mxCell id="Gqauc_cHtwARVeHKRNRg-8" value="Перевести модель в режим обучения" style="rounded=0;whiteSpace=wrap;html=1;" vertex="1" parent="1">
          <mxGeometry x="289.94" y="144.5" width="140" height="50" as="geometry" />
        </mxCell>
        <mxCell id="Gqauc_cHtwARVeHKRNRg-35" value="" style="endArrow=classic;html=1;rounded=0;exitX=0.5;exitY=1;exitDx=0;exitDy=0;exitPerimeter=0;entryX=0.5;entryY=0;entryDx=0;entryDy=0;" edge="1" parent="1" source="Gqauc_cHtwARVeHKRNRg-1" target="Gqauc_cHtwARVeHKRNRg-8">
          <mxGeometry width="50" height="50" relative="1" as="geometry">
            <mxPoint x="539.94" y="434.5" as="sourcePoint" />
            <mxPoint x="589.94" y="384.5" as="targetPoint" />
          </mxGeometry>
        </mxCell>
        <mxCell id="Gqauc_cHtwARVeHKRNRg-48" value="" style="edgeStyle=orthogonalEdgeStyle;rounded=0;orthogonalLoop=1;jettySize=auto;html=1;" edge="1" parent="1" source="Gqauc_cHtwARVeHKRNRg-45" target="Gqauc_cHtwARVeHKRNRg-47">
          <mxGeometry relative="1" as="geometry" />
        </mxCell>
        <mxCell id="Gqauc_cHtwARVeHKRNRg-45" value="need_stop = False&lt;br&gt;epoch = 0" style="rounded=0;whiteSpace=wrap;html=1;" vertex="1" parent="1">
          <mxGeometry x="289.94" y="224.5" width="140" height="50" as="geometry" />
        </mxCell>
        <mxCell id="Gqauc_cHtwARVeHKRNRg-64" value="" style="edgeStyle=orthogonalEdgeStyle;rounded=0;orthogonalLoop=1;jettySize=auto;html=1;" edge="1" parent="1" source="Gqauc_cHtwARVeHKRNRg-47" target="Gqauc_cHtwARVeHKRNRg-63">
          <mxGeometry relative="1" as="geometry" />
        </mxCell>
        <mxCell id="Gqauc_cHtwARVeHKRNRg-47" value="not need_stop and&lt;br&gt;epoch &amp;lt; epochs&amp;nbsp;" style="rhombus;whiteSpace=wrap;html=1;" vertex="1" parent="1">
          <mxGeometry x="284.94" y="304.5" width="150" height="55" as="geometry" />
        </mxCell>
        <mxCell id="Gqauc_cHtwARVeHKRNRg-68" value="" style="edgeStyle=orthogonalEdgeStyle;rounded=0;orthogonalLoop=1;jettySize=auto;html=1;" edge="1" parent="1" source="Gqauc_cHtwARVeHKRNRg-63" target="Gqauc_cHtwARVeHKRNRg-67">
          <mxGeometry relative="1" as="geometry" />
        </mxCell>
        <mxCell id="Gqauc_cHtwARVeHKRNRg-63" value="Провести обучение на одной эпохе" style="shape=process;whiteSpace=wrap;html=1;backgroundOutline=1;" vertex="1" parent="1">
          <mxGeometry x="299.94" y="394.5" width="120" height="50" as="geometry" />
        </mxCell>
        <mxCell id="Gqauc_cHtwARVeHKRNRg-65" value="Да" style="text;html=1;align=center;verticalAlign=middle;resizable=0;points=[];autosize=1;strokeColor=none;fillColor=none;" vertex="1" parent="1">
          <mxGeometry x="319.94" y="362.5" width="40" height="30" as="geometry" />
        </mxCell>
        <mxCell id="Gqauc_cHtwARVeHKRNRg-70" value="" style="edgeStyle=orthogonalEdgeStyle;rounded=0;orthogonalLoop=1;jettySize=auto;html=1;" edge="1" parent="1" source="Gqauc_cHtwARVeHKRNRg-67" target="Gqauc_cHtwARVeHKRNRg-69">
          <mxGeometry relative="1" as="geometry" />
        </mxCell>
        <mxCell id="Gqauc_cHtwARVeHKRNRg-67" value="Получить значение точности на тестовой выборке" style="rounded=0;whiteSpace=wrap;html=1;" vertex="1" parent="1">
          <mxGeometry x="289.94" y="474.5" width="140" height="50" as="geometry" />
        </mxCell>
        <mxCell id="Gqauc_cHtwARVeHKRNRg-73" style="edgeStyle=orthogonalEdgeStyle;rounded=0;orthogonalLoop=1;jettySize=auto;html=1;exitX=0;exitY=0.5;exitDx=0;exitDy=0;entryX=0.5;entryY=0;entryDx=0;entryDy=0;" edge="1" parent="1" source="Gqauc_cHtwARVeHKRNRg-69" target="Gqauc_cHtwARVeHKRNRg-71">
          <mxGeometry relative="1" as="geometry" />
        </mxCell>
        <mxCell id="Gqauc_cHtwARVeHKRNRg-77" style="edgeStyle=orthogonalEdgeStyle;rounded=0;orthogonalLoop=1;jettySize=auto;html=1;exitX=1;exitY=0.5;exitDx=0;exitDy=0;" edge="1" parent="1" source="Gqauc_cHtwARVeHKRNRg-69" target="Gqauc_cHtwARVeHKRNRg-76">
          <mxGeometry relative="1" as="geometry" />
        </mxCell>
        <mxCell id="Gqauc_cHtwARVeHKRNRg-69" value="Модель&lt;br&gt;переобучается?" style="rhombus;whiteSpace=wrap;html=1;" vertex="1" parent="1">
          <mxGeometry x="284.94" y="554.5" width="150" height="55" as="geometry" />
        </mxCell>
        <mxCell id="Gqauc_cHtwARVeHKRNRg-71" value="need_stop = True" style="rounded=0;whiteSpace=wrap;html=1;" vertex="1" parent="1">
          <mxGeometry x="189.94" y="634.5" width="140" height="50" as="geometry" />
        </mxCell>
        <mxCell id="Gqauc_cHtwARVeHKRNRg-74" value="Да" style="text;html=1;align=center;verticalAlign=middle;resizable=0;points=[];autosize=1;strokeColor=none;fillColor=none;" vertex="1" parent="1">
          <mxGeometry x="249.94" y="552.5" width="40" height="30" as="geometry" />
        </mxCell>
        <mxCell id="Gqauc_cHtwARVeHKRNRg-76" value="epoch = epoch + 1" style="rounded=0;whiteSpace=wrap;html=1;" vertex="1" parent="1">
          <mxGeometry x="399.94" y="634.5" width="140" height="50" as="geometry" />
        </mxCell>
        <mxCell id="Gqauc_cHtwARVeHKRNRg-78" value="Нет" style="text;html=1;align=center;verticalAlign=middle;resizable=0;points=[];autosize=1;strokeColor=none;fillColor=none;" vertex="1" parent="1">
          <mxGeometry x="429.94" y="552.5" width="40" height="30" as="geometry" />
        </mxCell>
        <mxCell id="Gqauc_cHtwARVeHKRNRg-80" value="" style="endArrow=none;html=1;rounded=0;entryX=0.5;entryY=1;entryDx=0;entryDy=0;" edge="1" parent="1" target="Gqauc_cHtwARVeHKRNRg-76">
          <mxGeometry width="50" height="50" relative="1" as="geometry">
            <mxPoint x="469.94" y="760" as="sourcePoint" />
            <mxPoint x="599.94" y="794.5" as="targetPoint" />
          </mxGeometry>
        </mxCell>
        <mxCell id="Gqauc_cHtwARVeHKRNRg-82" value="" style="endArrow=none;html=1;rounded=0;entryX=0.5;entryY=1;entryDx=0;entryDy=0;" edge="1" parent="1" target="Gqauc_cHtwARVeHKRNRg-71">
          <mxGeometry width="50" height="50" relative="1" as="geometry">
            <mxPoint x="259.94" y="760" as="sourcePoint" />
            <mxPoint x="599.94" y="794.5" as="targetPoint" />
          </mxGeometry>
        </mxCell>
        <mxCell id="Gqauc_cHtwARVeHKRNRg-83" value="" style="endArrow=none;html=1;rounded=0;" edge="1" parent="1">
          <mxGeometry width="50" height="50" relative="1" as="geometry">
            <mxPoint x="259.94" y="760" as="sourcePoint" />
            <mxPoint x="469.94" y="760" as="targetPoint" />
          </mxGeometry>
        </mxCell>
        <mxCell id="Gqauc_cHtwARVeHKRNRg-85" value="" style="endArrow=classic;html=1;rounded=0;edgeStyle=orthogonalEdgeStyle;" edge="1" parent="1">
          <mxGeometry width="50" height="50" relative="1" as="geometry">
            <mxPoint x="358.94" y="760" as="sourcePoint" />
            <mxPoint x="359.94" y="290" as="targetPoint" />
            <Array as="points">
              <mxPoint x="358.94" y="790" />
              <mxPoint x="159.94" y="790" />
              <mxPoint x="159.94" y="290" />
            </Array>
          </mxGeometry>
        </mxCell>
        <mxCell id="Gqauc_cHtwARVeHKRNRg-87" value="Конец" style="strokeWidth=2;html=1;shape=mxgraph.flowchart.start_1;whiteSpace=wrap;" vertex="1" parent="1">
          <mxGeometry x="289.94" y="860" width="140" height="60" as="geometry" />
        </mxCell>
        <mxCell id="Gqauc_cHtwARVeHKRNRg-88" value="" style="endArrow=none;html=1;rounded=0;exitX=1;exitY=0.5;exitDx=0;exitDy=0;entryX=0.5;entryY=0;entryDx=0;entryDy=0;entryPerimeter=0;edgeStyle=orthogonalEdgeStyle;" edge="1" parent="1" source="Gqauc_cHtwARVeHKRNRg-47" target="Gqauc_cHtwARVeHKRNRg-87">
          <mxGeometry width="50" height="50" relative="1" as="geometry">
            <mxPoint x="569.94" y="520" as="sourcePoint" />
            <mxPoint x="619.94" y="470" as="targetPoint" />
            <Array as="points">
              <mxPoint x="569.94" y="332" />
              <mxPoint x="569.94" y="810" />
              <mxPoint x="359.94" y="810" />
              <mxPoint x="359.94" y="860" />
            </Array>
          </mxGeometry>
        </mxCell>
        <mxCell id="Gqauc_cHtwARVeHKRNRg-89" value="Нет" style="text;html=1;align=center;verticalAlign=middle;resizable=0;points=[];autosize=1;strokeColor=none;fillColor=none;" vertex="1" parent="1">
          <mxGeometry x="434.94" y="304.5" width="40" height="30" as="geometry" />
        </mxCell>
      </root>
    </mxGraphModel>
  </diagram>
  <diagram id="wr_xCqwn3Q241JN9F5do" name="Page-3">
    <mxGraphModel dx="824" dy="843" grid="1" gridSize="10" guides="1" tooltips="1" connect="1" arrows="1" fold="1" page="1" pageScale="1" pageWidth="850" pageHeight="1100" math="0" shadow="0">
      <root>
        <mxCell id="0" />
        <mxCell id="1" parent="0" />
        <mxCell id="ZAEczoEfHcG6uB_vqbHl-1" value="" style="edgeStyle=orthogonalEdgeStyle;rounded=0;orthogonalLoop=1;jettySize=auto;html=1;" edge="1" parent="1" source="ZAEczoEfHcG6uB_vqbHl-2" target="ZAEczoEfHcG6uB_vqbHl-4">
          <mxGeometry relative="1" as="geometry" />
        </mxCell>
        <mxCell id="ZAEczoEfHcG6uB_vqbHl-2" value="Получить псевдослучайный порядок элементов" style="rounded=0;whiteSpace=wrap;html=1;" vertex="1" parent="1">
          <mxGeometry x="1215" y="152.5" width="140" height="50" as="geometry" />
        </mxCell>
        <mxCell id="ZAEczoEfHcG6uB_vqbHl-3" value="" style="edgeStyle=orthogonalEdgeStyle;rounded=0;orthogonalLoop=1;jettySize=auto;html=1;" edge="1" parent="1" source="ZAEczoEfHcG6uB_vqbHl-4" target="ZAEczoEfHcG6uB_vqbHl-6">
          <mxGeometry relative="1" as="geometry" />
        </mxCell>
        <mxCell id="ZAEczoEfHcG6uB_vqbHl-4" value="start_index = 0" style="rounded=0;whiteSpace=wrap;html=1;" vertex="1" parent="1">
          <mxGeometry x="1215" y="227.5" width="140" height="50" as="geometry" />
        </mxCell>
        <mxCell id="ZAEczoEfHcG6uB_vqbHl-5" value="" style="edgeStyle=orthogonalEdgeStyle;rounded=0;orthogonalLoop=1;jettySize=auto;html=1;" edge="1" parent="1" source="ZAEczoEfHcG6uB_vqbHl-6" target="ZAEczoEfHcG6uB_vqbHl-8">
          <mxGeometry relative="1" as="geometry" />
        </mxCell>
        <mxCell id="ZAEczoEfHcG6uB_vqbHl-6" value="start_index &amp;lt; test_size" style="rhombus;whiteSpace=wrap;html=1;" vertex="1" parent="1">
          <mxGeometry x="1210" y="302.5" width="150" height="55" as="geometry" />
        </mxCell>
        <mxCell id="ZAEczoEfHcG6uB_vqbHl-7" value="" style="edgeStyle=orthogonalEdgeStyle;rounded=0;orthogonalLoop=1;jettySize=auto;html=1;" edge="1" parent="1" source="ZAEczoEfHcG6uB_vqbHl-8" target="ZAEczoEfHcG6uB_vqbHl-10">
          <mxGeometry relative="1" as="geometry" />
        </mxCell>
        <mxCell id="ZAEczoEfHcG6uB_vqbHl-8" value="получить batch_size обучающих данных, начиная с start_index&amp;nbsp;" style="rounded=0;whiteSpace=wrap;html=1;" vertex="1" parent="1">
          <mxGeometry x="1215" y="385" width="140" height="50" as="geometry" />
        </mxCell>
        <mxCell id="ZAEczoEfHcG6uB_vqbHl-9" value="" style="edgeStyle=orthogonalEdgeStyle;rounded=0;orthogonalLoop=1;jettySize=auto;html=1;" edge="1" parent="1" source="ZAEczoEfHcG6uB_vqbHl-10" target="ZAEczoEfHcG6uB_vqbHl-12">
          <mxGeometry relative="1" as="geometry" />
        </mxCell>
        <mxCell id="ZAEczoEfHcG6uB_vqbHl-10" value="выполнить аугментацию пакета обучающих данных" style="rounded=0;whiteSpace=wrap;html=1;" vertex="1" parent="1">
          <mxGeometry x="1215" y="458" width="140" height="50" as="geometry" />
        </mxCell>
        <mxCell id="ZAEczoEfHcG6uB_vqbHl-11" value="" style="edgeStyle=orthogonalEdgeStyle;rounded=0;orthogonalLoop=1;jettySize=auto;html=1;" edge="1" parent="1" source="ZAEczoEfHcG6uB_vqbHl-12" target="ZAEczoEfHcG6uB_vqbHl-16">
          <mxGeometry relative="1" as="geometry" />
        </mxCell>
        <mxCell id="ZAEczoEfHcG6uB_vqbHl-12" value="Передать пакет обучающих данных на вход модели" style="rounded=0;whiteSpace=wrap;html=1;" vertex="1" parent="1">
          <mxGeometry x="1215" y="532.5" width="140" height="50" as="geometry" />
        </mxCell>
        <mxCell id="ZAEczoEfHcG6uB_vqbHl-13" style="edgeStyle=orthogonalEdgeStyle;rounded=0;orthogonalLoop=1;jettySize=auto;html=1;exitX=0.5;exitY=1;exitDx=0;exitDy=0;exitPerimeter=0;entryX=0.5;entryY=0;entryDx=0;entryDy=0;" edge="1" parent="1" source="ZAEczoEfHcG6uB_vqbHl-14" target="ZAEczoEfHcG6uB_vqbHl-2">
          <mxGeometry relative="1" as="geometry" />
        </mxCell>
        <mxCell id="ZAEczoEfHcG6uB_vqbHl-14" value="Начало" style="strokeWidth=2;html=1;shape=mxgraph.flowchart.start_1;whiteSpace=wrap;" vertex="1" parent="1">
          <mxGeometry x="1215" y="60" width="140" height="60" as="geometry" />
        </mxCell>
        <mxCell id="ZAEczoEfHcG6uB_vqbHl-15" value="" style="edgeStyle=orthogonalEdgeStyle;rounded=0;orthogonalLoop=1;jettySize=auto;html=1;" edge="1" parent="1" source="ZAEczoEfHcG6uB_vqbHl-16" target="ZAEczoEfHcG6uB_vqbHl-18">
          <mxGeometry relative="1" as="geometry" />
        </mxCell>
        <mxCell id="ZAEczoEfHcG6uB_vqbHl-16" value="Вычислить функцию потерь" style="rounded=0;whiteSpace=wrap;html=1;" vertex="1" parent="1">
          <mxGeometry x="1215" y="610" width="140" height="50" as="geometry" />
        </mxCell>
        <mxCell id="ZAEczoEfHcG6uB_vqbHl-17" value="" style="edgeStyle=orthogonalEdgeStyle;rounded=0;orthogonalLoop=1;jettySize=auto;html=1;" edge="1" parent="1" source="ZAEczoEfHcG6uB_vqbHl-18" target="ZAEczoEfHcG6uB_vqbHl-20">
          <mxGeometry relative="1" as="geometry" />
        </mxCell>
        <mxCell id="ZAEczoEfHcG6uB_vqbHl-18" value="Вычислить градиенты функции потерь для параметров модели" style="rounded=0;whiteSpace=wrap;html=1;" vertex="1" parent="1">
          <mxGeometry x="1215" y="690" width="140" height="50" as="geometry" />
        </mxCell>
        <mxCell id="ZAEczoEfHcG6uB_vqbHl-19" value="" style="edgeStyle=orthogonalEdgeStyle;rounded=0;orthogonalLoop=1;jettySize=auto;html=1;" edge="1" parent="1" source="ZAEczoEfHcG6uB_vqbHl-20" target="ZAEczoEfHcG6uB_vqbHl-21">
          <mxGeometry relative="1" as="geometry" />
        </mxCell>
        <mxCell id="ZAEczoEfHcG6uB_vqbHl-20" value="Обновить параметры модели" style="rounded=0;whiteSpace=wrap;html=1;" vertex="1" parent="1">
          <mxGeometry x="1215" y="770" width="140" height="50" as="geometry" />
        </mxCell>
        <mxCell id="ZAEczoEfHcG6uB_vqbHl-21" value="start_index = start_index + batch_size" style="rounded=0;whiteSpace=wrap;html=1;" vertex="1" parent="1">
          <mxGeometry x="1215" y="850" width="140" height="50" as="geometry" />
        </mxCell>
        <mxCell id="ZAEczoEfHcG6uB_vqbHl-22" value="" style="endArrow=classic;html=1;rounded=0;exitX=0.5;exitY=1;exitDx=0;exitDy=0;edgeStyle=orthogonalEdgeStyle;" edge="1" parent="1" source="ZAEczoEfHcG6uB_vqbHl-21">
          <mxGeometry width="50" height="50" relative="1" as="geometry">
            <mxPoint x="1270" y="680" as="sourcePoint" />
            <mxPoint x="1285" y="290" as="targetPoint" />
            <Array as="points">
              <mxPoint x="1285" y="910" />
              <mxPoint x="1130" y="910" />
              <mxPoint x="1130" y="290" />
            </Array>
          </mxGeometry>
        </mxCell>
        <mxCell id="ZAEczoEfHcG6uB_vqbHl-23" value="Да" style="text;html=1;align=center;verticalAlign=middle;resizable=0;points=[];autosize=1;strokeColor=none;fillColor=none;" vertex="1" parent="1">
          <mxGeometry x="1280" y="352.5" width="40" height="30" as="geometry" />
        </mxCell>
        <mxCell id="ZAEczoEfHcG6uB_vqbHl-24" value="Конец" style="strokeWidth=2;html=1;shape=mxgraph.flowchart.start_1;whiteSpace=wrap;" vertex="1" parent="1">
          <mxGeometry x="1215" y="950" width="140" height="60" as="geometry" />
        </mxCell>
        <mxCell id="ZAEczoEfHcG6uB_vqbHl-25" value="" style="endArrow=none;html=1;rounded=0;entryX=1;entryY=0.5;entryDx=0;entryDy=0;exitX=0.5;exitY=0;exitDx=0;exitDy=0;exitPerimeter=0;edgeStyle=orthogonalEdgeStyle;" edge="1" parent="1" source="ZAEczoEfHcG6uB_vqbHl-24" target="ZAEczoEfHcG6uB_vqbHl-6">
          <mxGeometry width="50" height="50" relative="1" as="geometry">
            <mxPoint x="1270" y="590" as="sourcePoint" />
            <mxPoint x="1320" y="540" as="targetPoint" />
            <Array as="points">
              <mxPoint x="1285" y="930" />
              <mxPoint x="1420" y="930" />
              <mxPoint x="1420" y="330" />
            </Array>
          </mxGeometry>
        </mxCell>
      </root>
    </mxGraphModel>
  </diagram>
</mxfile>
